<?xml version="1.0" encoding="utf-8"?>
<!-- Generator: Adobe Illustrator 23.1.1, SVG Export Plug-In . SVG Version: 6.00 Build 0)  -->
<svg version="1.1" id="Layer_1" xmlns="http://www.w3.org/2000/svg" xmlns:xlink="http://www.w3.org/1999/xlink" x="0px" y="0px"
	 viewBox="0 0 4000 4000" style="enable-background:new 0 0 4000 4000;" xml:space="preserve">
<style type="text/css">
	.st0{fill:none;}
	.st1{opacity:0.25;}
	.st2{fill:#390075;}
	.st3{fill:#1F2129;}
	.st4{fill:#FFFFFF;}
	.st5{opacity:0.3;}
	.st6{fill:#121212;}
	.st7{opacity:0.2;}
	.st8{font-family:'Montserrat-Bold';}
	.st9{font-size:371.3214px;}
	.st10{font-family:'Montserrat-Italic';}
	.st11{font-family:'Montserrat-Regular';}
	.st12{font-family:'Montserrat-LightItalic';}
	.st13{font-family:'Montserrat-ExtraLight';}
	.st14{fill:#00E07A;}
	.st15{fill:#1F87FC;}
	.st16{fill:#003144;}
	.st17{fill:#FFDC9C;}
	.st18{opacity:0.55;}
</style>
<title>Asset 5</title>
<g>
	<g id="Layer_1-2">
		<rect class="st0" width="4000" height="4000"/>
		<g id="logo-dark">
			<g class="st1">
				<path class="st2" d="M3733.9,1197.2c-18.5-38.7-51.8-68.3-92.3-82.3l-309-107.8l-11.1-120.5c-8.2-88.9-86.8-154.3-175.7-146.2
					l0,0l-457.3,42L2254.9,631c-84.3-29.4-176.4,15-205.9,99.3l0,0l-39.9,114.3l-325.9,29.9c-88.7,8.1-154.3,87-146.2,175.7
					l83.3,908.5l-300.6,861.4c-29.4,84.3,15,176.4,99.3,205.9c0,0,0,0,0.1,0l309,107.8l11.1,120.5c7.7,83.7,78.3,146.9,160.8,146.9
					c4.9,0,9.9-0.2,14.9-0.7l457.3-41.9l433.6,151.3c17.1,6,35,9,53.1,9c66.8,0,129.5-41.8,152.7-108.4l39.9-114.3l325.9-29.9
					c88.9-8.1,154.3-86.8,146.2-175.7l0,0l-83.3-908.6l300.6-861.4C3755.1,1280.2,3752.6,1235.7,3733.9,1197.2z"/>
			</g>
			<path class="st3" d="M3296.9,3164.8l-230.5,21.1l-937.4,86l-294.6,27c-76.1,7-143.4-49-150.4-125.1l-5.4-59.1l-90.7-989
				l-106-1156.1c-7-76.1,49-143.4,125.1-150.4l451.2-41.4l381.1-35l630.2-57.8c76.1-6.9,143.4,49.1,150.4,125.1l19.4,211.9
				l121.1,1321.1l61.5,671.2C3429,3090.4,3373,3157.7,3296.9,3164.8z"/>
			<path class="st2" d="M1821.4,3303c-73.2-0.1-134.4-56-141.1-128.9L1478.2,969.9c-7.1-78,50.3-147.1,128.3-154.3l1462.6-134.1
				c77.9-7.2,147.1,50.4,154.3,128.3L3425.6,3014c7.1,78-50.3,147.1-128.4,154.3l-1462.6,134.2
				C1830.2,3302.9,1825.8,3303,1821.4,3303z M3082.2,688c-4.1,0-8.2,0.2-12.4,0.6L1607.2,822.7c-74.1,6.8-128.7,72.4-121.9,146.5
				l202.1,2204.2c6.8,74.1,72.4,128.7,146.5,121.9l1462.6-134.1c74.1-6.8,128.7-72.4,121.9-146.5l-202-2204.2
				C3209.9,741.2,3151.8,688.2,3082.2,688z"/>
			<path class="st4" d="M1821.4,3322.8c-83.4-0.2-153-63.8-160.7-146.9L1458.6,971.7c-8.1-88.7,57.4-167.6,146.2-175.7l1462.6-134.1
				c88.9-8.2,167.6,57.3,175.7,146.2l0,0l202.2,2204.2c8.1,88.7-57.4,167.6-146.2,175.7l0,0l-1462.6,134.2
				C1831.5,3322.5,1826.4,3322.8,1821.4,3322.8z M3082.3,707.8c-3.6,0-7.1,0.2-10.7,0.5L1609,842.4
				c-63.2,5.9-109.8,61.8-104.1,125.1l202.2,2204.1c5.8,63.3,61.8,109.9,125.1,104.1l1462.6-134.2l2.1,23.2l-2.1-23.2
				c63.3-5.9,109.8-61.8,104.1-125.1L3196.7,812.3C3191.3,753.1,3141.7,707.8,3082.3,707.8L3082.3,707.8z"/>
			<g class="st5">
				<path class="st6" d="M3360.5,2343.1l-294.1,842.8l-937.4,86l-450.5-157.2l-90.7-989l477-1367c25.2-72.1,104-110.2,176.1-85l0,0
					l998.3,348.3L3360.5,2343.1z"/>
			</g>
			<path class="st3" d="M3640.5,1234.6l-729.2,2089.9c-25.2,72.1-104,110.2-176.1,85l0,0l-1386.7-483.9
				c-72.1-25.2-110.2-104-85-176.1l0,0l729.2-2089.9c25.2-72.1,104-110.2,176.1-85l0,0l1386.7,483.9
				C3627.6,1083.6,3665.6,1162.4,3640.5,1234.6C3640.5,1234.5,3640.5,1234.5,3640.5,1234.6z"/>
			<path class="st2" d="M2780.8,3420.8c-16,0-31.8-2.7-46.9-8l-1386.7-483.9c-73.9-25.8-113-106.8-87.2-180.7l729.2-2089.9
				c25.8-73.9,106.9-113,180.7-87.2L3556.6,1055c74,25.8,113,106.7,87.2,180.7l0,0l-729.2,2089.9
				C2894.7,3382.5,2841.1,3420.7,2780.8,3420.8z M2123.3,570.3c-57.3,0-108.4,36.3-127.3,90.4l-729.3,2089.9
				c-24.5,70.1,12.7,147.1,82.8,171.6l1386.7,483.9c70.2,24.5,147.1-12.5,171.6-82.8c0,0,0,0,0-0.1L3637,1233.3l3.4,1.2l-3.4-1.2
				c24.5-70.2-12.5-147.1-82.8-171.6c0,0,0,0-0.1,0L2167.6,577.9C2153.4,572.9,2138.4,570.3,2123.3,570.3z"/>
			<g class="st7">
				<path class="st6" d="M2643.6,1523.5c-12.1-23.8-38.2-37-64.6-32.6L1925.5,1593c-2.4,0.4-4.7,1.1-6.8,2.2L283.5,2449.1
					c-82.7,43.2-114.8,145.3-71.6,228l0,0l95.2,182.4c43,82.7,144.9,114.8,227.6,71.8c0.2-0.1,0.3-0.2,0.5-0.2l1635.2-853.8
					c2.1-1.1,4.1-2.6,5.7-4.3l457.3-477.9C2652.1,1576,2656.2,1547.1,2643.6,1523.5z"/>
			</g>
			<g class="st5">
				<path class="st6" d="M3623.7,1228.1L2894.5,3318c-25.2,72.1-104,110.2-176.1,85l0,0l-1386.7-483.8c-51-17.8-87-63.7-92.1-117.4
					c16.3,21.2,38.5,37.1,63.8,45.9l1386.7,483.9c72.1,25.2,151-12.8,176.1-84.9c0,0,0,0,0-0.1l729.2-2089.9
					c6.6-18.8,9-38.9,7.1-58.7C3631.2,1134.8,3639.2,1183.9,3623.7,1228.1z"/>
			</g>
			<path class="st4" d="M2780.8,3440.5c-18.2,0-36.2-3.1-53.4-9.1l-1386.7-483.9c-84.1-29.4-128.7-121.7-99.3-205.9l729.2-2089.8
				c29.4-84.3,121.6-128.7,205.8-99.3l1386.7,483.9c84.1,29.4,128.7,121.7,99.4,205.8L2933.3,3332
				C2910.6,3396.9,2849.5,3440.4,2780.8,3440.5z M2123.1,590c-48.9,0.1-92.4,31.1-108.6,77.2L1285.3,2757
				c-20.9,60,10.8,125.6,70.7,146.6l1386.7,483.9l0,0c60,20.9,125.6-10.7,146.6-70.7L3618.5,1227c20.9-60-10.8-125.6-70.7-146.6
				L2161.1,596.5C2148.9,592.2,2136,590,2123.1,590z"/>
			<text transform="matrix(0.9404 0.3401 -0.3401 0.9404 2070.3599 1098.42)" class="st4 st8 st9">R</text>
			<text transform="matrix(0.9404 0.3401 -0.3401 0.9404 2327.0093 1191.2506)" class="st4 st10 st9">T</text>
			
				<text transform="matrix(0.9404 0.3401 -0.3401 0.9404 2527.4351 1263.745)" class="st4 st11 st9" style="text-decoration: underline;">E</text>
			
				<text transform="matrix(0.9404 0.3401 -0.3401 0.9404 1918.7983 1517.444)" class="st4 st11 st9" style="text-decoration: underline;">lo</text>
			
				<text transform="matrix(0.9404 0.3401 -0.3401 0.9404 2231.668 1630.6095)" class="st4 st11 st9" style="text-decoration: underline;">r</text>
			
				<text transform="matrix(0.9404 0.3401 -0.3401 0.9404 2367.1504 1679.6134)" class="st4 st11 st9" style="text-decoration: underline;">em</text>
			
				<text transform="matrix(0.9404 0.3401 -0.3401 0.9404 1767.2368 1936.4674)" class="st4 st12 st9" style="text-decoration: underline;">ipsum</text>
			<text transform="matrix(0.9404 0.3401 -0.3401 0.9404 1615.6748 2355.4912)" class="st4 st13 st9">dolor</text>
			<path class="st14" d="M2117.5,1979.4L482.3,2833.3c-72,37.5-160.7,9.7-198.3-62.3l-95.3-182.4c-37.6-72-9.7-160.8,62.3-198.3
				l1635.2-853.8l16.6-2.6l493.9-77.2l143-22.3c37.8-5.9,61.5,39.6,35.1,67.2l-100,104.6l-345.6,361.2L2117.5,1979.4z"/>
			<path class="st15" d="M641.9,2749.9l-159.6,83.4c-72,37.5-160.7,9.7-198.3-62.3l-95.3-182.4c-37.6-72-9.7-160.8,62.3-198.3
				l159.6-83.3L641.9,2749.9z"/>
			
				<rect x="517" y="2241.9" transform="matrix(0.8864 -0.4628 0.4628 0.8864 -1085.5925 558.7965)" class="st16" width="158" height="499.8"/>
			<path class="st2" d="M640.4,2754.7l-1.7-3.2l-233-446.1l146.4-76.4l1.7,3.2l233,446.1L640.4,2754.7z M415.4,2308.4l228,436.7
				l133.8-69.9l-228-436.7L415.4,2308.4z"/>
			<path class="st17" d="M2129.1,1967.3c-38.1-42.8-107.2,3.2-142.9-51.3c-35.4-57.1,41-101.3,11.6-156c-28-55.4-108-18-134.6-79.6
				c-24.3-60.5,52.9-90.9,39.6-146.6l493.9-77.2l143-22.3c37.8-5.9,61.5,39.6,35.1,67.2l-100,104.6L2129.1,1967.3z"/>
			<path class="st2" d="M2129,1972.5l-2.6-2.9c-16.8-18.9-40.2-19.4-64.8-19.9c-28.7-0.6-58.4-1.2-78.4-31.8
				c-19.3-31.1-7.3-58.3,4.3-84.6c10.6-24,20.6-46.7,7.1-71.7c-12.8-25.4-37.2-30.2-62.9-35.2c-28.2-5.5-57.3-11.2-71.8-44.7
				c-13.6-33.9,2.8-58.7,18.7-82.6c13.7-20.6,26.6-40,20.7-64.6l-0.9-3.8l640.7-100.1c23.8-3.7,46.1,12.6,49.8,36.4
				c2.1,13.4-2.2,27-11.5,36.8L2129,1972.5z M1907,1536.8c4.5,25.8-9.2,46.5-22.5,66.4c-15.6,23.4-30.3,45.5-18.1,75.9
				c12.9,29.9,39,35,66.6,40.4c26.3,5.1,53.5,10.5,67.9,38.9c15.1,28,3.9,53.3-6.9,77.8c-11.3,25.7-22,50-4.8,77.8
				c17.9,27.3,44.5,27.9,72.6,28.5c24,0.5,48.7,1.1,67.4,19.5l443-463c13.3-13.9,11.8-30.9,5.9-42.1s-18.9-22.1-37.9-19.2
				L1907,1536.8z"/>
			<g class="st5">
				<path class="st2" d="M2117.5,1979.4L482.3,2833.3c-72,37.5-160.7,9.7-198.3-62.3l-61.2-117.3c37.6,71.9,126.3,99.8,198.3,62.3
					l1620.2-846.1c9.9-5.2,18.9-11.9,26.6-19.9l0,0l517.6-382c2,12.3-2,24.7-10.8,33.6l-100,104.6l-345.6,361.2L2117.5,1979.4z"/>
			</g>
			<g class="st18">
				<path class="st4" d="M2583.7,1487.2c-5.5-1.5-11.2-1.7-16.8-0.8l-143,22.3l-493.8,77.2l-16.6,2.6L278.2,2442.4
					c-72,37.6-99.8,126.4-62.3,198.3l-27.2-52.1c-37.6-72-9.7-160.8,62.3-198.3l1635.2-853.8l16.6-2.6l493.9-77.2l143-22.3
					C2571.4,1429.3,2593.2,1460.7,2583.7,1487.2z"/>
			</g>
			<path class="st4" d="M414.5,2872c-63,0.1-120.9-34.9-150.1-90.8l-95.2-182.4c-43.1-82.6-11-184.9,71.6-228.1L1876,1516.9
				c2.1-1.1,4.4-1.9,6.8-2.2l653.5-102.1c33.9-5.3,65.6,17.9,70.9,51.8c3,19.1-3.1,38.5-16.5,52.4l-457.3,477.9
				c-1.7,1.7-3.6,3.2-5.7,4.3L492.5,2852.8C468.4,2865.4,441.7,2872,414.5,2872z M1893.1,1557.7L261.2,2409.8
				c-61.1,32-84.8,107.4-52.9,168.6l95.3,182.4c31.9,61.1,107.5,84.8,168.6,52.9l1632-852.2l454.8-475.3c8.2-8.6,4.3-18.1,2.9-20.7
				s-6.9-11.3-18.7-9.5L1893.1,1557.7z M2117.5,1979.4L2117.5,1979.4z"/>
			<path class="st4" d="M2129.1,1989.3c-6.3,0-12.3-2.7-16.5-7.4c-10.9-12.3-26.7-13.2-51.4-13.8c-30.3-0.7-68.1-1.5-93.5-40.1
				c-24.6-39.8-9.4-74.4,2.8-102.2c10.8-24.5,16.5-39.2,7.8-55.4c-8.6-17-23.9-20.7-50.2-25.8c-29.8-5.8-66.9-13.1-85.2-55.5
				c-17.4-43.4,3.5-74.9,20.3-100.2c13.7-20.6,21.9-34.1,18.1-50.1c-2.8-11.8,4.5-23.7,16.3-26.6c11.8-2.8,23.7,4.5,26.6,16.3l0,0
				c8.5,35.5-9.7,62.8-24.3,84.8c-15.9,23.9-24.5,38.4-16.3,58.8c8.5,19.6,24.8,23.7,53,29.2c27.8,5.4,62.4,12.2,80.8,48.7
				c19.1,35.5,4.9,67.7-6.5,93.6c-11.6,26.3-17.6,42-6,60.7c11.7,17.9,28.6,19.1,57.2,19.7c26.4,0.6,59.2,1.3,83.4,28.5
				c8.1,9.1,7.3,23-1.8,31.1C2139.8,1987.3,2134.6,1989.3,2129.1,1989.3L2129.1,1989.3z"/>
			<path class="st4" d="M2474.7,1606.1c-48.6-38-74.6-87.8-78-149.4l143-22.3c37.8-5.9,61.5,39.6,35.1,67.2L2474.7,1606.1z"/>
			<path class="st4" d="M641.9,2772c-8.2,0-15.8-4.6-19.5-11.8l-231.4-443c-5.6-10.8-1.5-24.1,9.3-29.8l140.1-73.1
				c10.8-5.6,24.1-1.4,29.8,9.3l231.3,443c5.6,10.8,1.5,24.1-9.3,29.7h-0.1L652,2769.4C648.9,2771.1,645.5,2772,641.9,2772z
				 M440.3,2316.3l210.9,403.9l101-52.7l-210.9-403.9L440.3,2316.3z"/>
			<path class="st4" d="M2474.7,1628.1c-4.9,0-9.7-1.6-13.6-4.7c-53.6-41.9-82.7-97.6-86.4-165.6c-0.7-12.2,8.6-22.6,20.8-23.2
				s22.6,8.6,23.2,20.8l0,0c3.1,55.5,25.9,99.1,69.6,133.3c9.6,7.4,11.4,21.2,4,30.9C2488,1625,2481.5,1628.2,2474.7,1628.1
				L2474.7,1628.1z"/>
		</g>
	</g>
</g>
</svg>
