<?xml version="1.0" encoding="utf-8"?>
<!-- Generator: Adobe Illustrator 23.1.1, SVG Export Plug-In . SVG Version: 6.00 Build 0)  -->
<svg version="1.1" id="Layer_1" xmlns="http://www.w3.org/2000/svg" xmlns:xlink="http://www.w3.org/1999/xlink" x="0px" y="0px"
	 viewBox="0 0 8192 4000" style="enable-background:new 0 0 8192 4000;" xml:space="preserve">
<style type="text/css">
	.st0{fill:none;}
	.st1{opacity:0.25;}
	.st2{fill:#390075;}
	.st3{fill:#FFFFFF;}
	.st4{fill:#212121;}
	.st5{opacity:0.3;}
	.st6{opacity:0.2;}
	.st7{font-family:'Montserrat-Bold';}
	.st8{font-size:301.294px;}
	.st9{font-family:'Montserrat-Italic';}
	.st10{font-family:'Montserrat-Regular';}
	.st11{font-family:'Montserrat-LightItalic';}
	.st12{font-family:'Montserrat-ExtraLight';}
	.st13{fill:#00E07A;}
	.st14{fill:#1F87FC;}
	.st15{fill:#003144;}
	.st16{fill:#FFDC9C;}
	.st17{opacity:0.55;}
	.st18{font-family:'Montserrat-Medium';}
	.st19{font-size:527.4168px;}
</style>
<title>Asset 8</title>
<g>
	<g id="Layer_1-2">
		<rect y="377.2" class="st0" width="8192" height="3245.6"/>
		<g class="st1">
			<path class="st2" d="M3133.5,1348.4c-15-31.4-42-55.4-74.9-66.8l-250.7-87.5l-9-97.8c-6.6-72.1-70.4-125.2-142.5-118.6
				c0,0,0,0,0,0l-371.1,34.1l-351.8-122.8c-68.4-23.9-143.2,12.2-167,80.6l-32.4,92.7l-264.5,24.3c-72,6.6-125.2,70.6-118.6,142.6
				l67.6,737.2l-243.9,699c-23.9,68.4,12.2,143.2,80.6,167l250.7,87.5l9,97.8c6.2,68,63.5,119.2,130.5,119.2c4,0,8-0.2,12.1-0.6
				l371.1-34l351.8,122.8c13.8,4.8,28.4,7.3,43.1,7.3c54.2,0,105.1-33.9,123.9-87.9l32.4-92.7l264.5-24.3
				c72.1-6.6,125.2-70.4,118.6-142.6l-67.6-737.2l243.9-699C3150.8,1415.8,3148.7,1379.7,3133.5,1348.4z"/>
		</g>
		<path class="st3" d="M2778.9,2944.9l-187.1,17.1l-760.6,69.8l-239.1,21.9c-61.7,5.6-116.4-39.8-122-101.5l-4.4-47.9l-73.6-802.5
			l-86-938.1c-5.6-61.7,39.8-116.3,101.5-122l366.1-33.6l309.2-28.4l511.4-46.9c61.7-5.6,116.4,39.8,122.1,101.6l15.7,171.9
			l98.3,1071.9l50,544.7C2886.1,2884.6,2840.7,2939.2,2778.9,2944.9z"/>
		<path class="st2" d="M1581.7,3057.1c-59.4-0.1-109-45.5-114.5-104.7l-164-1788.5c-5.8-63.3,40.8-119.4,104.1-125.2l1186.8-108.9
			c63.2-5.8,119.3,40.9,125.2,104.1l164,1788.5c5.8,63.3-40.8,119.4-104.1,125.2l-1186.8,108.8
			C1588.8,3056.9,1585.3,3057.1,1581.7,3057.1z M2604.7,935.3c-3.3,0-6.7,0.2-10.1,0.5l-1186.8,108.8
			c-60.1,5.5-104.4,58.8-98.9,118.9l164,1788.5c5.5,60.1,58.8,104.4,118.9,98.9L2778.7,2942c60.1-5.5,104.4-58.8,98.9-118.9
			l-164-1788.5C2708.3,978.4,2661.2,935.4,2604.7,935.3L2604.7,935.3z"/>
		<path class="st4" d="M1581.7,3073.1c-67.7-0.1-124.2-51.8-130.4-119.2l-164.1-1788.5c-6.6-72,46.6-136,118.6-142.6L2592.6,914
			c72.1-6.6,135.9,46.5,142.6,118.6l164.1,1788.5c6.6,72-46.6,136-118.6,142.6l0,0l-1186.7,108.8
			C1589.8,3072.9,1585.8,3073.1,1581.7,3073.1z M2604.8,951.3c-2.9,0-5.8,0.1-8.7,0.4l-1186.7,108.8c-51.3,4.8-89.1,50.2-84.5,101.5
			l164,1788.5c4.7,51.3,50.2,89.2,101.5,84.5l1186.7-108.9l1.7,18.8l-1.7-18.8c51.3-4.8,89.1-50.2,84.5-101.5l-164-1788.5
			C2693.2,988.1,2653,951.3,2604.8,951.3L2604.8,951.3z"/>
		<g class="st5">
			<path class="st2" d="M2830.5,2278.2L2591.9,2962l-760.6,69.8l-365.5-127.5l-73.6-802.5l387-1109.2c20.4-58.5,84.4-89.4,142.9-69
				c0,0,0,0,0,0l810.1,282.7L2830.5,2278.2z"/>
		</g>
		<path class="st3" d="M3057.7,1378.7L2466,3074.4c-20.4,58.5-84.4,89.4-142.9,69c0,0,0,0,0,0l-1125.2-392.6
			c-58.5-20.4-89.4-84.4-69-142.9c0,0,0,0,0,0l591.7-1695.7c20.4-58.5,84.4-89.4,142.9-69c0,0,0,0,0.1,0l1125.2,392.6
			C3047.2,1256.2,3078.1,1320.2,3057.7,1378.7C3057.7,1378.7,3057.7,1378.7,3057.7,1378.7z"/>
		<path class="st2" d="M2360.1,3152.6c-13,0-25.8-2.2-38-6.5l-1125.2-392.6c-59.9-20.9-91.7-86.7-70.8-146.6l591.7-1695.7
			c20.9-59.9,86.7-91.7,146.6-70.8L2989.7,1233c60,20.9,91.7,86.6,70.8,146.6c0,0,0,0,0,0l-591.7,1695.7
			C2452.6,3121.6,2409,3152.5,2360.1,3152.6z M1826.6,839.8c-46.5,0-88,29.4-103.3,73.3l-591.7,1695.7
			c-19.9,56.9,10.3,119.4,67.2,139.3L2324,3140.7c57,19.9,119.3-10.2,139.2-67.2c0,0,0,0,0,0L3055,1377.8l2.7,1l-2.7-1
			c19.9-57-10.2-119.3-67.2-139.2c0,0,0,0,0,0L1862.6,845.9C1851,841.8,1838.9,839.8,1826.6,839.8z"/>
		<g class="st6">
			<path class="st2" d="M2248.8,1613.2c-9.8-19.3-31-30-52.4-26.5l-530.2,82.9c-1.9,0.3-3.8,0.9-5.5,1.8L333.8,2364.2
				c-67.1,35-93.2,117.9-58.1,185c0,0,0,0.1,0,0.1l77.3,148c34.9,67.1,117.6,93.2,184.7,58.3c0.1-0.1,0.2-0.1,0.4-0.2l1326.8-692.8
				c1.7-0.9,3.3-2.1,4.6-3.5l371-387.8C2255.7,1655.8,2259,1632.3,2248.8,1613.2z"/>
		</g>
		<g class="st5">
			<path class="st2" d="M3044.1,1373.5l-591.7,1695.7c-20.4,58.5-84.4,89.4-142.9,69c0,0,0,0,0,0l-1125.2-392.6
				c-41.4-14.4-70.6-51.6-74.8-95.3c13.3,17.2,31.2,30.1,51.7,37.3l1125.2,392.6c58.5,20.4,122.5-10.4,142.9-69c0,0,0,0,0,0
				L3021,1315.4c5.4-15.3,7.3-31.5,5.8-47.7C3050.1,1297.8,3056.6,1337.6,3044.1,1373.5z"/>
		</g>
		<path class="st4" d="M2360.1,3168.7c-14.8,0-29.4-2.5-43.3-7.4l-1125.2-392.6c-68.3-23.8-104.4-98.8-80.6-167l591.7-1695.7
			c23.9-68.4,98.6-104.5,167-80.6l1125.2,392.6c68.3,23.8,104.4,98.8,80.6,167l-591.7,1695.7
			C2465.4,3133.3,2415.8,3168.5,2360.1,3168.7z M1826.5,855.7c-39.7,0.1-75,25.2-88.1,62.7l-591.7,1695.7
			c-16.9,48.7,8.8,101.9,57.4,118.9l1125.2,392.6l0,0c48.7,17,101.9-8.7,118.9-57.4l591.7-1695.7c16.9-48.7-8.8-101.9-57.4-118.9
			L1857.3,861C1847.4,857.5,1837,855.7,1826.5,855.7z"/>
		<text transform="matrix(0.9404 0.3401 -0.3401 0.9404 1783.6833 1268.2455)" class="st4 st7 st8">R</text>
		<text transform="matrix(0.9404 0.3401 -0.3401 0.9404 1991.9308 1343.569)" class="st4 st9 st8">T</text>
		
			<text transform="matrix(0.9404 0.3401 -0.3401 0.9404 2154.5588 1402.3918)" class="st4 st10 st8" style="text-decoration: underline;">E</text>
		
			<text transform="matrix(0.9404 0.3401 -0.3401 0.9404 1660.7046 1608.2456)" class="st2 st10 st8" style="text-decoration: underline;">lo</text>
		
			<text transform="matrix(0.9404 0.3401 -0.3401 0.9404 1914.5695 1700.0691)" class="st2 st10 st8" style="text-decoration: underline;">r</text>
		
			<text transform="matrix(0.9404 0.3401 -0.3401 0.9404 2024.5016 1739.8318)" class="st4 st10 st8" style="text-decoration: underline;">em</text>
		
			<text transform="matrix(0.9404 0.3401 -0.3401 0.9404 1537.7256 1948.2462)" class="st4 st11 st8" style="text-decoration: underline;">ipsum</text>
		<text transform="matrix(0.9404 0.3401 -0.3401 0.9404 1414.7468 2288.2463)" class="st4 st12 st8">dolor</text>
		<path class="st13" d="M1821.9,1983.1L495.1,2675.9c-58.4,30.5-130.4,7.9-160.9-50.5l-77.3-148c-30.5-58.4-7.9-130.4,50.5-160.9
			l1326.8-692.8l13.5-2.1l400.8-62.6l116-18.1c30.7-4.8,49.9,32.1,28.5,54.6l-81.1,84.8l-280.4,293L1821.9,1983.1z"/>
		<path class="st14" d="M624.6,2608.3l-129.5,67.6c-58.4,30.5-130.4,7.9-160.9-50.5l-77.3-148c-30.5-58.4-7.9-130.4,50.5-160.9
			l129.5-67.6L624.6,2608.3z"/>
		
			<rect x="523.4" y="2196.2" transform="matrix(0.8864 -0.4628 0.4628 0.8864 -1043.5995 544.3363)" class="st15" width="128.2" height="405.5"/>
		<path class="st2" d="M623.4,2612.2l-1.3-2.6l-189.1-362l118.8-62l1.3,2.6l189.1,362L623.4,2612.2z M440.8,2250.1l185,354.3
			l108.5-56.7l-185-354.3L440.8,2250.1z"/>
		<path class="st16" d="M1831.4,1973.2c-30.9-34.7-87,2.6-116-41.6c-28.7-46.3,33.3-82.2,9.4-126.6c-22.7-45-87.6-14.6-109.2-64.6
			c-19.7-49.1,42.9-73.8,32.1-119l400.8-62.6l116-18.1c30.7-4.8,49.9,32.1,28.5,54.6l-81.1,84.8L1831.4,1973.2z"/>
		<path class="st2" d="M1831.3,1977.5l-2.1-2.3c-13.7-15.3-32.6-15.7-52.6-16.2c-23.3-0.5-47.4-1-63.6-25.8
			c-15.6-25.2-5.9-47.3,3.5-68.6c8.6-19.5,16.7-37.9,5.8-58.1c-10.4-20.6-30.2-24.5-51.1-28.6c-22.9-4.5-46.5-9.1-58.3-36.3
			c-11.1-27.5,2.3-47.6,15.2-67c11.1-16.7,21.6-32.5,16.8-52.4l-0.7-3.1l519.9-81.2c19.3-3,37.4,10.2,40.4,29.5
			c1.7,10.9-1.8,21.9-9.4,29.9L1831.3,1977.5z M1651.2,1623.9c3.7,21-7.5,37.7-18.2,53.9c-12.6,19-24.6,36.9-14.7,61.6
			c10.5,24.3,31.6,28.4,54,32.8c21.3,4.2,43.4,8.5,55.1,31.5c12.2,22.7,3.1,43.3-5.6,63.2c-9.2,20.9-17.9,40.6-3.9,63.2
			c14.5,22.2,36.1,22.6,58.9,23.1c19.5,0.4,39.5,0.9,54.7,15.8l359.5-375.7c10.8-11.3,9.6-25,4.8-34.1c-4.8-9.1-15.4-17.9-30.8-15.6
			L1651.2,1623.9z"/>
		<g class="st5">
			<path class="st2" d="M1821.9,1983.1L495.1,2675.9c-58.4,30.5-130.4,7.9-160.9-50.5l-49.7-95.1c30.5,58.4,102.5,81,160.9,50.6
				c0,0,0.1,0,0.1-0.1l1314.7-686.5c8-4.2,15.3-9.6,21.6-16.2l0,0l420-310c1.6,9.9-1.6,20.1-8.7,27.2l-81.1,84.8l-280.5,293
				L1821.9,1983.1z"/>
		</g>
		<g class="st17">
			<path class="st3" d="M2200.2,1583.7c-4.5-1.2-9.1-1.4-13.7-0.7l-116,18.1l-400.7,62.6l-13.5,2.1L329.5,2358.8
				c-58.4,30.5-81,102.5-50.5,160.9l-22.1-42.3c-30.5-58.4-7.9-130.4,50.5-160.9l1326.8-692.8l13.5-2.1l400.8-62.6l116-18.1
				C2190.2,1536.8,2207.9,1562.2,2200.2,1583.7z"/>
		</g>
		<path class="st4" d="M440.1,2707.3c-51.1,0.1-98.1-28.3-121.8-73.6l-77.3-148c-35-67-8.9-150.1,58.1-185.1l1326.8-692.8
			c1.7-0.9,3.6-1.5,5.5-1.8l530.2-82.9c27.5-4.3,53.3,14.5,57.5,42c2.4,15.5-2.5,31.2-13.4,42.6l-371,387.8
			c-1.3,1.4-2.9,2.6-4.6,3.5L503.4,2691.8C483.9,2702,462.2,2707.3,440.1,2707.3z M1639.9,1640.9L315.7,2332.3
			c-49.6,26-68.8,87.1-42.9,136.8l77.3,148c25.9,49.6,87.2,68.8,136.8,42.9L1811,1968.6l369-385.7c6.7-7,3.5-14.7,2.4-16.8
			c-1.1-2.2-5.7-9.2-15.2-7.7L1639.9,1640.9z M1821.9,1983.1L1821.9,1983.1z"/>
		<path class="st4" d="M1831.4,1991.1c-5.1,0-10-2.2-13.4-6c-8.9-10-21.6-10.7-41.7-11.2c-24.6-0.5-55.3-1.2-75.9-32.5
			c-20-32.3-7.6-60.3,2.3-82.9c8.8-19.9,13.4-31.8,6.3-45c-7-13.8-19.4-16.8-40.7-21c-24.2-4.7-54.3-10.6-69.2-45
			c-14.2-35.2,2.8-60.8,16.5-81.3c11.1-16.7,17.8-27.7,14.7-40.6c-2.3-9.6,3.6-19.3,13.2-21.6c9.6-2.3,19.3,3.6,21.6,13.2l0,0
			c6.9,28.8-7.8,50.9-19.7,68.8c-12.9,19.4-19.9,31.2-13.2,47.7c6.9,15.9,20.1,19.2,43,23.7c22.5,4.4,50.6,9.9,65.6,39.5
			c15.5,28.8,4,55-5.3,76c-9.4,21.3-14.2,34.1-4.9,49.2c9.5,14.5,23.2,15.5,46.4,16c21.4,0.5,48,1,67.7,23.1
			c6.6,7.3,6,18.6-1.3,25.2C1840.1,1989.5,1835.8,1991.2,1831.4,1991.1L1831.4,1991.1z"/>
		<path class="st4" d="M2111.8,1680.2c-39.5-30.9-60.6-71.3-63.3-121.3l116-18.1c30.7-4.8,49.9,32.1,28.5,54.6L2111.8,1680.2z"/>
		<path class="st4" d="M624.6,2626.2c-6.7,0-12.8-3.7-15.9-9.6l-187.7-359.5c-4.6-8.8-1.2-19.6,7.6-24.1l113.6-59.3
			c8.8-4.6,19.6-1.2,24.1,7.6l187.7,359.5c4.6,8.7,1.2,19.5-7.5,24.1c0,0,0,0-0.1,0l-113.6,59.3
			C630.3,2625.5,627.5,2626.2,624.6,2626.2z M461.1,2256.4l171.1,327.7l82-42.8L543,2213.6L461.1,2256.4z"/>
		<path class="st4" d="M2111.7,1698.1c-4,0-7.9-1.3-11-3.8c-43.5-34-67.1-79.2-70.1-134.3c-0.6-9.9,7-18.3,16.9-18.8
			c9.9-0.6,18.3,7,18.8,16.9c2.5,45,21,80.4,56.5,108.2c7.8,6.1,9.2,17.3,3.1,25.1C2122.4,1695.5,2117.2,1698.1,2111.7,1698.1
			L2111.7,1698.1z"/>
		<text transform="matrix(1 0 0 1 3336.1221 1960.8652)" class="st4 st18 st19">C</text>
		<text transform="matrix(1 0 0 1 3705.8418 1960.8652)" class="st4 st18 st19">ompose</text>
		<text transform="matrix(1 0 0 1 3336.1221 2593.7656)" class="st4 st18 st19">Ri</text>
		<text transform="matrix(1 0 0 1 3866.6953 2593.7656)" class="st4 st18 st19">c</text>
		<text transform="matrix(1 0 0 1 4164.166 2593.7656)" class="st4 st18 st19">h </text>
		<text transform="matrix(1 0 0 1 4665.2051 2593.7656)" class="st4 st18 st19">T</text>
		<text transform="matrix(1 0 0 1 4945.791 2593.7656)" class="st4 st18 st19">e</text>
		<text transform="matrix(1 0 0 1 5260.6582 2593.7656)" class="st4 st18 st19">xt </text>
		<text transform="matrix(1 0 0 1 5912.002 2593.7656)" class="st4 st18 st19">E</text>
		<text transform="matrix(1 0 0 1 6261.6875 2593.7656)" class="st4 st18 st19">di</text>
		<text transform="matrix(1 0 0 1 6768.5273 2593.7656)" class="st4 st18 st19">t</text>
		<text transform="matrix(1 0 0 1 6977.3828 2593.7656)" class="st4 st18 st19">or</text>
	</g>
</g>
</svg>
