<svg xmlns="http://www.w3.org/2000/svg" viewBox="0 0 4000 4000"><defs><style>.cls-1{fill:none;}.cls-2{opacity:0.25;}.cls-3{fill:#390075;}.cls-4{fill:#1a0a33;}.cls-5,.cls-8{fill:#fff;}.cls-6{opacity:0.3;}.cls-7{opacity:0.2;}.cls-8{font-size:371.47px;font-family:Montserrat-Bold, Montserrat;font-weight:700;}.cls-9{font-family:Montserrat-Italic, Montserrat;letter-spacing:0em;}.cls-10,.cls-9{font-weight:400;}.cls-12,.cls-9{font-style:italic;}.cls-10{font-family:Montserrat-Regular, Montserrat;}.cls-10,.cls-12{text-decoration:underline;}.cls-11{letter-spacing:-0.01em;}.cls-12{font-family:Montserrat-LightItalic, Montserrat;font-weight:300;}.cls-13{font-family:Montserrat-Thin, Montserrat;font-weight:200;}.cls-14{fill:#00e07a;}.cls-15{fill:#1f87fc;}.cls-16{fill:#003144;}.cls-17{fill:#ffdc9c;}.cls-18{opacity:0.55;}</style></defs><title>Asset 5</title><g id="Layer_2" data-name="Layer 2"><g id="Layer_1-2" data-name="Layer 1"><rect class="cls-1" width="4000" height="4000"/><g id="logo-dark"><g class="cls-2"><path class="cls-3" d="M3733.85,1197.16a160.61,160.61,0,0,0-92.31-82.35l-309-107.83-11.05-120.52a161.62,161.62,0,0,0-175.71-146.18l-457.32,42-433.59-151.3A161.62,161.62,0,0,0,2049,730.28l-39.87,114.26-325.94,29.9c-88.74,8.14-154.32,87-146.18,175.71l83.34,908.55-300.58,861.41A161.61,161.61,0,0,0,1419.1,3026l309,107.84,11.06,120.52c7.68,83.74,78.31,146.86,160.82,146.86q7.38,0,14.89-.68l457.32-41.95,433.59,151.3a160.82,160.82,0,0,0,53.1,9c66.84,0,129.51-41.8,152.74-108.38l39.88-114.27,325.94-29.9a161.6,161.6,0,0,0,146.17-175.7l-83.34-908.55,300.59-861.41A160.51,160.51,0,0,0,3733.85,1197.16Z"/></g><path class="cls-4" d="M3296.92,3164.76l-230.53,21.11-937.44,86-294.62,27a138.38,138.38,0,0,1-150.41-125.12l-5.43-59.08-90.68-989-106-1156.08a138.38,138.38,0,0,1,125.11-150.41l451.23-41.38,381.12-35L3069.5,685a138.42,138.42,0,0,1,150.41,125.12L3239.32,1022,3360.47,2343.1,3422,3014.34A138.4,138.4,0,0,1,3296.92,3164.76Z"/><path class="cls-3" d="M1821.44,3303a141.94,141.94,0,0,1-141.06-128.94L1478.24,969.92a142,142,0,0,1,128.35-154.29L3069.17,681.49c77.89-7.16,147.06,50.44,154.29,128.35L3425.59,3014a141.94,141.94,0,0,1-128.35,154.28L1834.66,3302.44C1830.24,3302.85,1825.83,3303,1821.44,3303ZM3082.22,688q-6.15,0-12.4.57L1607.24,822.73a134.81,134.81,0,0,0-121.89,146.53l202.12,2204.19A134.83,134.83,0,0,0,1834,3295.34l1462.58-134.13a134.83,134.83,0,0,0,121.9-146.54L3216.36,810.49A135.08,135.08,0,0,0,3082.22,688Z"/><path class="cls-5" d="M1821.44,3322.76a161.63,161.63,0,0,1-160.66-146.86L1458.59,971.74C1450.45,883,1516,804.17,1604.77,796L3067.34,661.87a161.62,161.62,0,0,1,175.71,146.18l202.19,2204.16c8.13,88.74-57.44,167.56-146.19,175.7h0L1836.49,3322.07Q1828.93,3322.76,1821.44,3322.76Zm1260.87-2615q-5.34,0-10.72.49L1609,842.38a115.22,115.22,0,0,0-104.08,125.11l202.19,2204.15a115.08,115.08,0,0,0,125.1,104.08L3294.8,3141.56l2.13,23.18-2.13-23.18a115.19,115.19,0,0,0,104.08-125.1L3196.69,812.3a115.08,115.08,0,0,0-114.38-104.57Z"/><g class="cls-6"><path class="cls-3" d="M3360.47,2343.1l-294.08,842.77-937.44,86-450.46-157.19-90.68-989,477-1367a138.3,138.3,0,0,1,176.17-85L3239.32,1022Z"/></g><path class="cls-4" d="M3640.48,1234.55,2911.24,3324.41a138.29,138.29,0,0,1-176.17,85L1348.38,2925.55a138.29,138.29,0,0,1-85-176.17L1992.6,659.53a138.29,138.29,0,0,1,176.17-85l1386.69,483.89A138.28,138.28,0,0,1,3640.48,1234.55Z"/><path class="cls-3" d="M2780.77,3420.8a141.93,141.93,0,0,1-46.87-8L1347.2,2928.91c-73.87-25.77-113-106.84-87.21-180.7L1989.23,658.35c25.78-73.87,106.85-113,180.71-87.21L3556.63,1055a141.87,141.87,0,0,1,87.22,180.71L2914.6,3325.58a142.11,142.11,0,0,1-133.83,95.22ZM2123.31,570.34A135,135,0,0,0,1996,660.71L1266.72,2750.56c-24.48,70.15,12.67,147.14,82.83,171.63l1386.69,483.88a134.72,134.72,0,0,0,171.63-82.84l729.25-2089.85,3.36,1.17-3.36-1.17a134.72,134.72,0,0,0-82.84-171.63L2167.59,577.87A134.15,134.15,0,0,0,2123.31,570.34Z"/><g class="cls-7"><path class="cls-3" d="M2643.57,1523.54a61.25,61.25,0,0,0-64.58-32.61l-653.48,102.12a22.11,22.11,0,0,0-6.8,2.24L283.54,2449.14A169,169,0,0,0,212,2677.22l95.25,182.41a168.77,168.77,0,0,0,228.07,71.59l1635.17-853.85a21.86,21.86,0,0,0,5.72-4.3l457.28-477.89A61.26,61.26,0,0,0,2643.57,1523.54Z"/></g><g class="cls-6"><path class="cls-3" d="M3623.67,1228.09,2894.43,3317.94a138.3,138.3,0,0,1-176.17,85L1331.57,2919.09a138.23,138.23,0,0,1-92.13-117.44,137.7,137.7,0,0,0,63.76,45.91l1386.69,483.88a138.28,138.28,0,0,0,176.17-85l729.25-2089.85a137,137,0,0,0,7.1-58.74A137.94,137.94,0,0,1,3623.67,1228.09Z"/></g><path class="cls-5" d="M2780.78,3440.53a161.91,161.91,0,0,1-53.38-9.1L1340.69,2947.54c-84.14-29.37-128.71-121.71-99.34-205.85L1970.58,651.86a161.63,161.63,0,0,1,205.85-99.34l1386.7,483.88c84.15,29.37,128.71,121.71,99.35,205.85L2933.24,3332.08a161.91,161.91,0,0,1-152.46,108.45ZM2123.08,590a115.29,115.29,0,0,0-108.55,77.22L1285.29,2757A115.21,115.21,0,0,0,1356,2903.59l1386.71,483.89h0a115.09,115.09,0,0,0,146.56-70.74l729.23-2089.83a115.19,115.19,0,0,0-70.74-146.56L2161.09,596.47A115,115,0,0,0,2123.08,590Z"/><text class="cls-8" transform="matrix(0.94, 0.34, -0.34, 0.94, 2070.36, 1098.42)">R<tspan class="cls-9" x="273.03" y="0">T</tspan><tspan class="cls-10" x="486.25" y="0">E</tspan><tspan class="cls-10"><tspan x="0" y="445.77">lo</tspan><tspan class="cls-11" x="332.84" y="445.77">r</tspan><tspan x="476.97" y="445.77">em</tspan></tspan><tspan class="cls-12"><tspan x="0" y="891.54">ipsum</tspan></tspan><tspan class="cls-13"><tspan x="0" y="1337.31">dolor</tspan></tspan></text><path class="cls-14" d="M2117.47,1979.42,482.3,2833.27A147,147,0,0,1,284,2771L188.72,2588.6A147,147,0,0,1,251,2390.27l1635.16-853.85,16.62-2.62,493.9-77.16,143-22.34c37.8-5.89,61.54,39.58,35.11,67.23l-100,104.55-345.58,361.2Z"/><path class="cls-15" d="M641.91,2749.92,482.3,2833.27A147,147,0,0,1,284,2771L188.72,2588.6A147,147,0,0,1,251,2390.27l159.6-83.34Z"/><rect class="cls-16" x="517.27" y="2241.98" width="158.01" height="499.75" transform="translate(-1085.69 559.01) rotate(-27.57)"/><path class="cls-3" d="M640.4,2754.73l-1.66-3.16-233-446.15L552.16,2229l1.65,3.16,233,446.15Zm-225-446.29,228,436.68,133.75-69.85-228-436.67Z"/><path class="cls-17" d="M2129.12,1967.28c-38.1-42.79-107.17,3.23-142.94-51.3-35.36-57.07,41-101.27,11.59-156-28-55.42-108-18-134.6-79.62-24.31-60.51,52.93-90.9,39.59-146.61l493.9-77.16,143-22.34c37.8-5.89,61.54,39.58,35.11,67.23l-100,104.55Z"/><path class="cls-3" d="M2129,1972.53l-2.57-2.88c-16.84-18.91-40.16-19.41-64.84-19.94-28.71-.62-58.4-1.25-78.42-31.77-19.26-31.08-7.28-58.27,4.31-84.56,10.58-24,20.57-46.69,7.12-71.66-12.84-25.39-37.17-30.16-62.92-35.19-28.2-5.52-57.35-11.23-71.81-44.7-13.64-33.95,2.8-58.68,18.7-82.6,13.68-20.56,26.59-40,20.7-64.6l-.9-3.76,640.67-100.09a43.62,43.62,0,0,1,38.24,73.21Zm-222-435.78c4.52,25.85-9.19,46.46-22.47,66.43-15.56,23.41-30.27,45.52-18.06,75.91,12.93,29.94,39,35,66.6,40.45,26.3,5.14,53.49,10.46,67.87,38.88,15.06,28,3.89,53.31-6.92,77.84-11.34,25.73-22,50-4.83,77.85,17.92,27.3,44.46,27.87,72.57,28.47,24,.52,48.72,1.05,67.36,19.53l443-463c13.32-13.93,11.81-30.87,5.95-42.08s-18.92-22.12-37.93-19.17Z"/><g class="cls-6"><path class="cls-3" d="M2117.47,1979.42,482.3,2833.27A147,147,0,0,1,284,2771l-61.23-117.26A147,147,0,0,0,421.07,2716l1620.25-846.06a102.56,102.56,0,0,0,26.57-19.92h0l517.59-382a38.94,38.94,0,0,1-10.75,33.55l-100,104.55-345.58,361.2Z"/></g><g class="cls-18"><path class="cls-5" d="M2583.68,1487.24a40.49,40.49,0,0,0-16.84-.82l-143,22.34L1930,1585.92l-16.62,2.62L278.19,2442.39a147,147,0,0,0-62.26,198.33l-27.21-52.12A147,147,0,0,1,251,2390.27l1635.16-853.85,16.62-2.62,493.9-77.16,143-22.34C2571.36,1429.34,2593.21,1460.71,2583.68,1487.24Z"/></g><path class="cls-5" d="M414.54,2872a169.18,169.18,0,0,1-150.11-90.77l-95.25-182.41c-43.14-82.62-11-184.94,71.59-228.08l1635.17-853.85a22.11,22.11,0,0,1,6.8-2.24l653.48-102.12a62.1,62.1,0,0,1,54.45,104.25l-457.28,477.89a22.09,22.09,0,0,1-5.72,4.3L492.5,2852.82A168.12,168.12,0,0,1,414.54,2872ZM1893.13,1557.65,261.18,2409.82a125.08,125.08,0,0,0-52.92,168.57l95.25,182.41c31.89,61.08,107.53,84.83,168.58,52.92l1632-852.17,454.76-475.26c8.25-8.63,4.32-18.06,2.92-20.74s-6.95-11.29-18.7-9.46Zm224.33,421.77h0Z"/><path class="cls-5" d="M2129.13,1989.33a22,22,0,0,1-16.48-7.39c-10.92-12.27-26.66-13.22-51.43-13.75-30.35-.65-68.13-1.46-93.48-40.11-24.64-39.77-9.4-74.36,2.85-102.15,10.82-24.54,16.51-39.22,7.77-55.44-8.59-17-23.88-20.67-50.2-25.82-29.81-5.84-66.91-13.09-85.23-55.51-17.45-43.42,3.47-74.89,20.28-100.16,13.72-20.63,21.94-34.09,18.11-50.07a22,22,0,1,1,42.88-10.26c8.5,35.47-9.67,62.79-24.27,84.75-15.89,23.9-24.48,38.41-16.3,58.78,8.47,19.58,24.83,23.68,53,29.2,27.78,5.43,62.36,12.2,80.81,48.68,19.13,35.48,4.92,67.72-6.5,93.63-11.57,26.27-17.56,42-6,60.67,11.73,17.87,28.55,19.11,57.25,19.72,26.36.57,59.16,1.27,83.42,28.52a22.05,22.05,0,0,1-16.46,36.71Z"/><path class="cls-5" d="M2474.7,1606.08q-72.94-57-78-149.44l143-22.34c37.8-5.89,61.54,39.58,35.11,67.23Z"/><path class="cls-5" d="M641.91,2772a22,22,0,0,1-19.55-11.84L391,2317.14a22.06,22.06,0,0,1,9.34-29.76l140.06-73.14a22.06,22.06,0,0,1,29.75,9.34l231.32,443a22,22,0,0,1-9.34,29.75l-140.06,73.14A22,22,0,0,1,641.91,2772Zm-201.58-455.7,210.91,403.91,101-52.74-210.91-403.9Z"/><path class="cls-5" d="M2474.67,1628.12a22,22,0,0,1-13.57-4.67c-53.58-41.94-82.67-97.64-86.45-165.57a22,22,0,1,1,44-2.46c3.09,55.46,25.86,99.06,69.61,133.29a22,22,0,0,1-13.61,39.41Z"/></g></g></g></svg>