<svg xmlns="http://www.w3.org/2000/svg" viewBox="0 0 10096 4000"><defs><style>.cls-1{fill:none;}.cls-2{opacity:0.25;}.cls-18,.cls-3,.cls-7{fill:#390075;}.cls-4{fill:#fff;}.cls-5{opacity:0.3;}.cls-6{opacity:0.2;}.cls-7{font-size:371.47px;font-family:Montserrat-Bold, Montserrat;font-weight:700;}.cls-8{font-family:Montserrat-Italic, Montserrat;letter-spacing:0em;}.cls-8,.cls-9{font-weight:400;}.cls-11,.cls-8{font-style:italic;}.cls-9{font-family:Montserrat-Regular, Montserrat;}.cls-11,.cls-9{text-decoration:underline;}.cls-10{letter-spacing:-0.01em;}.cls-11{font-family:Montserrat-LightItalic, Montserrat;font-weight:300;}.cls-12{font-family:Montserrat-Thin, Montserrat;font-weight:200;}.cls-13{fill:#00e07a;}.cls-14{fill:#1f87fc;}.cls-15{fill:#003144;}.cls-16{fill:#ffdc9c;}.cls-17{opacity:0.55;}.cls-18{font-size:650px;font-family:Montserrat-Medium, Montserrat;font-weight:500;}.cls-19{letter-spacing:-0.02em;}.cls-20{letter-spacing:0em;}.cls-21{letter-spacing:-0.01em;}.cls-22{letter-spacing:-0.05em;}.cls-23{letter-spacing:-0.01em;}.cls-24{letter-spacing:-0.02em;}</style></defs><title>Asset 8</title><g id="Layer_2" data-name="Layer 2"><g id="Layer_1-2" data-name="Layer 1"><rect class="cls-1" width="10096" height="4000"/><g class="cls-2"><path class="cls-3" d="M3861.74,1196.91a160.61,160.61,0,0,0-92.31-82.35l-309-107.83-11.05-120.52A161.62,161.62,0,0,0,3273.64,740l-457.32,42-433.59-151.3A161.62,161.62,0,0,0,2176.88,730L2137,844.29l-325.94,29.9c-88.74,8.15-154.32,87-146.18,175.71l83.34,908.55-300.59,861.41A161.63,161.63,0,0,0,1547,3025.7l309,107.84,11.06,120.52c7.68,83.75,78.31,146.86,160.82,146.86q7.38,0,14.89-.68l457.32-41.95,433.59,151.3a160.82,160.82,0,0,0,53.1,9c66.84,0,129.51-41.8,152.74-108.38L3179.41,3296l326-29.9a161.62,161.62,0,0,0,146.17-175.7l-83.34-908.55,300.59-861.41A160.56,160.56,0,0,0,3861.74,1196.91Z"/></g><path class="cls-4" d="M3424.81,3164.51l-230.53,21.11-937.44,86-294.62,27a138.38,138.38,0,0,1-150.41-125.12l-5.43-59.08-90.68-989-106-1156.08A138.39,138.39,0,0,1,1734.8,818.93L2186,777.55l381.12-35,630.24-57.8A138.42,138.42,0,0,1,3347.8,809.91l19.41,211.86,121.15,1321.08,61.57,671.24A138.4,138.4,0,0,1,3424.81,3164.51Z"/><path class="cls-3" d="M1949.33,3302.8a142,142,0,0,1-141.07-129L1606.13,969.67a141.94,141.94,0,0,1,128.35-154.28L3197.06,681.24c77.89-7.15,147.06,50.44,154.29,128.35l202.13,2204.18a141.94,141.94,0,0,1-128.35,154.28L1962.55,3302.19Q1955.92,3302.81,1949.33,3302.8Zm1260.78-2615q-6.15,0-12.4.57L1735.13,822.48A134.84,134.84,0,0,0,1613.23,969L1815.36,3173.2a134.81,134.81,0,0,0,146.54,121.89L3424.48,3161a134.81,134.81,0,0,0,121.89-146.54L3344.25,810.24A135.09,135.09,0,0,0,3210.11,687.77Z"/><path class="cls-3" d="M1949.32,3322.51a161.63,161.63,0,0,1-160.65-146.86L1586.48,971.49c-8.14-88.75,57.44-167.57,146.18-175.71L3195.23,661.62A161.64,161.64,0,0,1,3370.94,807.8L3573.13,3012c8.13,88.74-57.45,167.56-146.19,175.7h0L1964.37,3321.82Q1956.82,3322.51,1949.32,3322.51Zm1260.87-2615c-3.55,0-7.13.16-10.71.5L1736.91,842.14a115.2,115.2,0,0,0-104.08,125.1L1835,3171.39a115.08,115.08,0,0,0,125.1,104.08l1462.57-134.16,2.13,23.18-2.13-23.18a115.19,115.19,0,0,0,104.08-125.1L3324.58,812.06a115.1,115.1,0,0,0-114.39-104.58Z"/><g class="cls-5"><path class="cls-3" d="M3488.36,2342.85l-294.08,842.77-937.44,86-450.46-157.19-90.68-989,477-1367a138.3,138.3,0,0,1,176.17-85l998.34,348.37Z"/></g><path class="cls-4" d="M3768.37,1234.3,3039.13,3324.16a138.3,138.3,0,0,1-176.17,85L1476.27,2925.3a138.29,138.29,0,0,1-85-176.17L2120.49,659.28a138.27,138.27,0,0,1,176.16-85l1386.7,483.88A138.28,138.28,0,0,1,3768.37,1234.3Z"/><path class="cls-3" d="M2908.66,3420.55a142,142,0,0,1-46.88-8L1475.09,2928.66c-73.87-25.77-113-106.84-87.22-180.7L2117.12,658.11c25.78-73.88,106.85-113,180.71-87.22l1386.69,483.89a141.86,141.86,0,0,1,87.22,180.7L3042.49,3325.33a142.11,142.11,0,0,1-133.83,95.22ZM2251.2,570.09a135,135,0,0,0-127.35,90.37L1394.6,2750.31c-24.47,70.15,12.68,147.14,82.84,171.63l1386.69,483.88A134.72,134.72,0,0,0,3035.76,3323L3765,1233.13l3.36,1.18-3.36-1.18a134.73,134.73,0,0,0-82.84-171.63L2295.48,577.62A134.15,134.15,0,0,0,2251.2,570.09Z"/><g class="cls-6"><path class="cls-3" d="M2771.46,1523.29a61.25,61.25,0,0,0-64.58-32.61L2053.4,1592.8a22,22,0,0,0-6.8,2.24L411.43,2448.89A169,169,0,0,0,339.84,2677l95.25,182.41A168.77,168.77,0,0,0,663.16,2931l1635.17-853.85a21.86,21.86,0,0,0,5.72-4.3l457.27-477.89A61.25,61.25,0,0,0,2771.46,1523.29Z"/></g><g class="cls-5"><path class="cls-3" d="M3751.56,1227.84,3022.32,3317.69a138.3,138.3,0,0,1-176.17,85L1459.46,2918.84a138.23,138.23,0,0,1-92.13-117.44,137.7,137.7,0,0,0,63.76,45.91L2817.78,3331.2a138.3,138.3,0,0,0,176.17-85L3723.2,1156.32a137.16,137.16,0,0,0,7.1-58.74A137.94,137.94,0,0,1,3751.56,1227.84Z"/></g><path class="cls-3" d="M2908.67,3440.29a161.92,161.92,0,0,1-53.38-9.11L1468.58,2947.3c-84.14-29.38-128.71-121.72-99.34-205.86L2098.47,651.61a161.63,161.63,0,0,1,205.85-99.34L3691,1036.15c84.14,29.37,128.71,121.71,99.35,205.85L3061.13,3331.83a161.95,161.95,0,0,1-152.46,108.46ZM2251,589.73A115.29,115.29,0,0,0,2142.42,667L1413.18,2756.78a115.21,115.21,0,0,0,70.74,146.56l1386.7,483.89h0a115.08,115.08,0,0,0,146.55-70.74l729.24-2089.83a115.21,115.21,0,0,0-70.74-146.56L2289,596.22A115.3,115.3,0,0,0,2251,589.73Z"/><text class="cls-7" transform="matrix(0.94, 0.34, -0.34, 0.94, 2198.25, 1098.17)">R<tspan class="cls-8" x="273.03" y="0">T</tspan><tspan class="cls-9" x="486.25" y="0">E</tspan><tspan class="cls-9"><tspan x="0" y="445.77">lo</tspan><tspan class="cls-10" x="332.84" y="445.77">r</tspan><tspan x="476.97" y="445.77">em</tspan></tspan><tspan class="cls-11"><tspan x="0" y="891.54">ipsum</tspan></tspan><tspan class="cls-12"><tspan x="0" y="1337.31">dolor</tspan></tspan></text><path class="cls-13" d="M2245.35,1979.17,610.19,2833a147,147,0,0,1-198.33-62.26l-95.25-182.41A147,147,0,0,1,378.86,2390L2014,1536.18l16.62-2.63,493.9-77.16,143-22.34c37.8-5.89,61.54,39.59,35.11,67.24l-100,104.55L2257,1967Z"/><path class="cls-14" d="M769.79,2749.67,610.19,2833a147,147,0,0,1-198.33-62.26l-95.25-182.41A147,147,0,0,1,378.86,2390l159.61-83.34Z"/><rect class="cls-15" x="645.16" y="2241.73" width="158.01" height="499.75" transform="translate(-1071.05 618.18) rotate(-27.57)"/><path class="cls-3" d="M768.29,2754.48l-1.66-3.15-233-446.16,146.39-76.44,1.65,3.16,233,446.15Zm-225-446.29,228,436.68L905.05,2675,677,2238.35Z"/><path class="cls-16" d="M2257,1967c-38.1-42.79-107.17,3.23-142.94-51.3-35.36-57.07,41-101.27,11.58-156-28-55.42-108-18-134.59-79.61-24.31-60.52,52.93-90.91,39.59-146.62l493.9-77.16,143-22.34c37.8-5.89,61.54,39.59,35.11,67.24l-100,104.55Z"/><path class="cls-3" d="M2256.92,1972.28l-2.57-2.88c-16.84-18.91-40.16-19.41-64.85-19.94-28.71-.61-58.4-1.25-78.42-31.77-19.25-31.08-7.27-58.27,4.32-84.56,10.58-24,20.57-46.69,7.12-71.66-12.84-25.39-37.17-30.15-62.92-35.19-28.2-5.52-57.35-11.23-71.82-44.7-13.63-33.95,2.81-58.68,18.71-82.6,13.68-20.56,26.59-40,20.69-64.6l-.89-3.76L2667,1430.53a43.61,43.61,0,0,1,38.23,73.21Zm-222-435.78c4.52,25.85-9.19,46.47-22.47,66.43-15.57,23.41-30.27,45.52-18.06,75.91,12.93,29.94,39,35,66.6,40.45,26.3,5.14,53.49,10.46,67.87,38.88,15.06,28,3.88,53.31-6.92,77.84-11.34,25.73-22.05,50-4.83,77.85,17.92,27.3,44.46,27.87,72.57,28.47,24,.52,48.72,1.05,67.36,19.53l443-463c13.32-13.93,11.81-30.86,5.95-42.08s-18.92-22.12-37.93-19.17Z"/><g class="cls-5"><path class="cls-3" d="M2245.35,1979.17,610.19,2833a147,147,0,0,1-198.33-62.26L350.63,2653.5A146.94,146.94,0,0,0,549,2715.75l1620.26-846.06a102.73,102.73,0,0,0,26.57-19.92h0l517.59-382a39,39,0,0,1-10.75,33.56l-100,104.55L2257,1967Z"/></g><g class="cls-17"><path class="cls-4" d="M2711.57,1487a40.49,40.49,0,0,0-16.84-.82l-143,22.34-493.89,77.16-16.62,2.62L406.08,2442.14a147,147,0,0,0-62.26,198.33l-27.21-52.12A147,147,0,0,1,378.86,2390L2014,1536.18l16.62-2.63,493.9-77.16,143-22.34C2699.24,1429.09,2721.1,1460.46,2711.57,1487Z"/></g><path class="cls-3" d="M542.43,2871.74A169.18,169.18,0,0,1,392.32,2781l-95.26-182.41c-43.14-82.62-11-184.94,71.6-228.08l1635.17-853.85a22,22,0,0,1,6.8-2.24l653.48-102.12a62.09,62.09,0,0,1,54.44,104.25l-457.27,477.89a22.12,22.12,0,0,1-5.72,4.31L620.39,2852.57A168.12,168.12,0,0,1,542.43,2871.74ZM2021,1557.4,389.07,2409.57a125.07,125.07,0,0,0-52.92,168.57l95.25,182.42c31.89,61.07,107.52,84.82,168.58,52.91L2231.93,1961.3,2686.69,1486c8.25-8.63,4.32-18.06,2.92-20.74s-7-11.29-18.7-9.46Zm224.33,421.77h0Z"/><path class="cls-3" d="M2257,1989.08a22,22,0,0,1-16.48-7.39c-10.92-12.27-26.66-13.22-51.43-13.75-30.35-.65-68.13-1.46-93.48-40.11-24.64-39.77-9.4-74.36,2.85-102.15,10.82-24.54,16.51-39.21,7.77-55.44-8.59-17-23.88-20.67-50.2-25.82-29.81-5.84-66.91-13.09-85.23-55.51-17.45-43.42,3.47-74.89,20.28-100.16,13.72-20.63,21.94-34.09,18.11-50.07a22,22,0,1,1,42.88-10.26c8.5,35.47-9.67,62.79-24.27,84.75-15.89,23.9-24.48,38.41-16.3,58.78,8.47,19.58,24.83,23.68,53,29.2,27.78,5.43,62.36,12.2,80.81,48.68,19.13,35.48,4.92,67.73-6.5,93.63-11.57,26.27-17.56,42-6,60.67,11.73,17.87,28.55,19.11,57.24,19.72,26.36.57,59.17,1.28,83.42,28.52a22,22,0,0,1-16.45,36.71Z"/><path class="cls-3" d="M2602.59,1605.84q-72.95-57.06-78-149.45l143-22.34c37.8-5.89,61.54,39.59,35.11,67.24Z"/><path class="cls-3" d="M769.79,2771.72a22,22,0,0,1-19.54-11.84l-231.32-443a22.07,22.07,0,0,1,9.34-29.76L668.33,2214a22.05,22.05,0,0,1,29.75,9.33l231.32,443a22,22,0,0,1-9.34,29.75L780,2769.22A22,22,0,0,1,769.79,2771.72ZM568.22,2316l210.91,403.91,101-52.73L669.2,2263.29Z"/><path class="cls-3" d="M2602.56,1627.88a22,22,0,0,1-13.57-4.68c-53.58-41.93-82.67-97.64-86.45-165.57a22,22,0,0,1,44-2.46c3.09,55.46,25.86,99.06,69.61,133.29a22.05,22.05,0,0,1-13.61,39.42Z"/><text class="cls-18" transform="translate(4111.51 1951.77)"><tspan class="cls-19">C<tspan class="cls-20" x="455.65" y="0">ompose</tspan></tspan><tspan x="0" y="780">Ri</tspan><tspan class="cls-21" x="653.89" y="780">c</tspan><tspan x="1020.5" y="780">h </tspan><tspan class="cls-22" x="1637.99" y="780">T</tspan><tspan class="cls-23" x="1983.79" y="780">e</tspan><tspan x="2371.84" y="780">xt </tspan><tspan class="cls-21" x="3174.57" y="780">E</tspan><tspan x="3605.53" y="780">di</tspan><tspan class="cls-24" x="4230.17" y="780">t</tspan><tspan x="4487.57" y="780">or</tspan></text></g></g></svg>